<svg width="37" height="22" viewBox="0 0 37 22" fill="none" xmlns="http://www.w3.org/2000/svg">
<path d="M36.0862 21.0197C34.7737 21.3555 33.962 21.0342 33.2337 19.934C31.5988 17.4703 29.7941 15.1195 28.0526 12.7252C27.8281 12.4155 27.595 12.1115 27.3043 11.7264C25.2434 14.5231 23.1853 17.1866 21.2539 19.9572C20.5631 20.9473 19.8378 21.3787 18.5483 21.0284L26.2968 10.5684L19.0836 1.12171C20.3242 0.87852 21.182 1.00301 21.9419 2.12052C23.6199 4.58714 25.4707 6.93506 27.3158 9.41905C29.1723 6.94374 31.0001 4.59293 32.7271 2.14947C33.4208 1.15934 34.1663 0.782982 35.4127 1.14776C34.4685 2.40713 33.5446 3.64623 32.6149 4.87665C31.3599 6.53553 30.128 8.21469 28.8269 9.83884C28.3635 10.4179 28.4384 10.7942 28.8528 11.3414C31.2592 14.5231 33.6367 17.7367 36.0862 21.0197ZM0.00863515 10.3947C0.215878 9.34957 0.35404 8.28417 0.641878 7.25931C2.3689 1.05512 9.44971 -1.52441 14.3142 2.32028C17.1638 4.57556 17.8718 7.75437 17.7308 11.3385H1.66946C1.42767 17.7685 6.0302 21.6508 11.8963 19.6706C13.9544 18.9758 15.1662 17.3545 15.7735 15.3279C16.0815 14.3118 16.591 14.1525 17.5408 14.442C17.0544 16.9781 15.952 19.0973 13.6493 20.4233C10.1952 22.4093 5.26455 21.7666 2.67113 19.0076C1.13984 17.3863 0.489324 15.3685 0.201486 13.1885C0.158311 12.841 0.069081 12.4994 0 12.1549C0.00575675 11.5682 0.00863515 10.9814 0.00863515 10.3947ZM1.69824 9.96333H16.2139C16.1189 5.31381 13.2405 2.0105 9.30579 1.98155C4.98823 1.94681 1.88534 5.17195 1.69824 9.96333Z" fill="#444444"/>
</svg>
