<svg width="26" height="27" viewBox="0 0 26 27" fill="none" xmlns="http://www.w3.org/2000/svg">
<path d="M12.9999 0C9.91308 0.00013629 6.92699 1.16976 4.57596 3.29959C2.22493 5.42942 0.662382 8.38047 0.167907 11.6247C-0.326567 14.869 0.279297 18.1947 1.87709 21.0068C3.47489 23.819 5.96035 25.934 8.88875 26.9735C9.53874 27.0946 9.78249 26.6794 9.78249 26.316C9.78249 25.9873 9.76623 24.8973 9.76623 23.7381C6.49999 24.3782 5.655 22.8903 5.395 22.1117C5.1065 21.3545 4.64916 20.6835 4.06251 20.1566C3.60751 19.8971 2.95751 19.2569 4.04624 19.2396C4.46196 19.2877 4.86068 19.4417 5.20862 19.6887C5.55655 19.9356 5.84345 20.2682 6.04499 20.6583C6.22279 20.9984 6.46187 21.2978 6.74853 21.5393C7.03519 21.7809 7.3638 21.9598 7.71552 22.0659C8.06724 22.172 8.43517 22.2031 8.79821 22.1575C9.16126 22.112 9.51229 21.9905 9.83119 21.8003C9.88747 21.0966 10.182 20.4387 10.66 19.949C7.76748 19.603 4.745 18.4091 4.745 13.1148C4.72673 11.7392 5.20349 10.4082 6.07749 9.39492C5.68006 8.19933 5.72656 6.88725 6.20749 5.72694C6.20749 5.72694 7.29619 5.36359 9.78246 7.14569C11.9096 6.52279 14.1553 6.52279 16.2824 7.14569C18.7686 5.3463 19.8574 5.72694 19.8574 5.72694C20.3384 6.88723 20.3849 8.19934 19.9874 9.39492C20.864 10.4065 21.3412 11.7386 21.3199 13.1148C21.3199 18.4264 18.2811 19.603 15.3887 19.949C15.6989 20.2838 15.9379 20.6858 16.0893 21.1276C16.2407 21.5695 16.301 22.0408 16.2662 22.5097C16.2662 24.361 16.2499 25.8489 16.2499 26.3161C16.2499 26.6794 16.4937 27.112 17.1437 26.9736C20.0669 25.9256 22.5452 23.8056 24.1362 20.992C25.7272 18.1784 26.3273 14.8544 25.8294 11.6133C25.3315 8.3722 23.768 5.42498 21.418 3.29774C19.068 1.1705 16.0844 0.00170929 12.9999 0Z" fill="#08ECA8"/>
</svg>