<svg width="25" height="26" viewBox="0 0 25 26" fill="none" xmlns="http://www.w3.org/2000/svg">
<path d="M12.7575 11.138H24.8007C24.9336 11.8941 25 12.6163 25 13.3047C25 15.7535 24.4961 17.9399 23.4884 19.8639C22.4806 21.788 21.0437 23.2917 19.1777 24.375C17.3117 25.4583 15.1716 26 12.7575 26C11.0188 26 9.36323 25.6586 7.7907 24.9759C6.21816 24.2932 4.86157 23.3707 3.72093 22.2083C2.58029 21.046 1.67497 19.6636 1.00498 18.0612C0.334994 16.4588 0 14.7717 0 13C0 11.2283 0.334994 9.54123 1.00498 7.9388C1.67497 6.33637 2.58029 4.95399 3.72093 3.79167C4.86157 2.62934 6.21816 1.70681 7.7907 1.02409C9.36323 0.341363 11.0188 0 12.7575 0C16.0797 0 18.9313 1.13411 21.3123 3.40234L17.8405 6.80469C16.4784 5.46181 14.7841 4.79036 12.7575 4.79036C11.3289 4.79036 10.0083 5.15712 8.79568 5.89062C7.58306 6.62413 6.62237 7.62001 5.91362 8.87826C5.20487 10.1365 4.8505 11.5104 4.8505 13C4.8505 14.4896 5.20487 15.8635 5.91362 17.1217C6.62237 18.38 7.58306 19.3759 8.79568 20.1094C10.0083 20.8429 11.3289 21.2096 12.7575 21.2096C13.7209 21.2096 14.6069 21.0742 15.4153 20.8034C16.2237 20.5326 16.8881 20.194 17.4086 19.7878C17.9291 19.3815 18.3832 18.9188 18.7708 18.3997C19.1584 17.8806 19.4435 17.3898 19.6262 16.9271C19.809 16.4644 19.9336 16.0243 20 15.6068H12.7575V11.138Z" fill="#444444"/>
</svg>
