<svg width="25" height="29" viewBox="0 0 25 29" fill="none" xmlns="http://www.w3.org/2000/svg">
<path d="M12.0233 28.0891C11.6626 28.0891 11.2965 27.9888 10.9788 27.7992L7.6566 25.7648C7.16124 25.475 7.40354 25.3746 7.56507 25.3189C8.22735 25.0792 8.36196 25.0291 9.06732 24.611C9.1427 24.5665 9.23962 24.5832 9.315 24.6333L11.8672 26.1996C11.9587 26.2553 12.088 26.2553 12.1741 26.1996L22.1191 20.2579C22.2106 20.2022 22.2698 20.0907 22.2698 19.9792V8.09592C22.2698 7.97887 22.2106 7.87297 22.1137 7.81166L12.1741 1.87558C12.0826 1.81984 11.9587 1.81984 11.8672 1.87558L1.933 7.81723C1.83608 7.87297 1.77685 7.98444 1.77685 8.10149V19.9792C1.77685 20.0907 1.83608 20.2022 1.933 20.2523L4.6575 21.8799C6.13821 22.6435 7.04278 21.7461 7.04278 20.8376V9.11035C7.04278 8.94313 7.17201 8.81494 7.33354 8.81494H8.59349C8.74964 8.81494 8.88425 8.94313 8.88425 9.11035V20.8432C8.88425 22.8832 7.80737 24.0537 5.93898 24.0537C5.36285 24.0537 4.91056 24.0537 3.65062 23.4071L1.04457 21.852C0.398445 21.4674 0 20.7484 0 19.9737V8.09592C0 7.32674 0.398445 6.60215 1.04457 6.21755L10.9788 0.275902C11.6087 -0.0919674 12.4433 -0.0919674 13.0679 0.275902L23.0129 6.22313C23.659 6.60772 24.0575 7.32674 24.0575 8.10149V19.9792C24.0575 20.7484 23.659 21.4674 23.0129 21.8576L13.0679 27.7992C12.7502 27.9888 12.3895 28.0891 12.0233 28.0891ZM20.0515 16.3786C20.0515 14.1546 18.5977 13.5638 15.5447 13.1458C12.4541 12.7222 12.1418 12.5048 12.1418 11.7579C12.1418 11.1392 12.4056 10.3143 14.694 10.3143C16.7347 10.3143 17.4885 10.7713 17.8008 12.1982C17.8277 12.332 17.9462 12.4323 18.0808 12.4323H19.373C19.4538 12.4323 19.5292 12.3989 19.583 12.3376C19.6369 12.2763 19.6638 12.1927 19.6584 12.109C19.4592 9.65101 17.8816 8.50838 14.694 8.50838C11.8564 8.50838 10.1657 9.74576 10.1657 11.8248C10.1657 14.0766 11.851 14.7009 14.5702 14.9795C17.8277 15.3084 18.0808 15.8045 18.0808 16.4677C18.0808 17.6159 17.187 18.1064 15.0924 18.1064C12.4595 18.1064 11.8834 17.4209 11.6895 16.0664C11.668 15.9215 11.5495 15.8156 11.4041 15.8156H10.1173C9.95574 15.8156 9.8319 15.9494 9.8319 16.111C9.8319 17.8445 10.7419 19.9123 15.0978 19.9123C18.2423 19.9068 20.0515 18.6192 20.0515 16.3786Z" fill="#444444"/>
</svg>
