<svg width="26" height="29" viewBox="0 0 26 29" fill="none" xmlns="http://www.w3.org/2000/svg">
<path d="M25.6584 17.0116C25.3731 16.6644 24.8856 16.7593 24.5087 16.838C23.6027 17.0078 22.6171 17.2051 21.7397 16.8093C23.3067 14.2118 24.5396 11.3759 25.2292 8.38255C25.4801 7.24491 25.6739 6.08106 25.637 4.90971C25.6097 4.25411 25.5229 3.55604 25.1413 3.01283C24.1835 1.70033 22.8404 0.756205 21.32 0.326719C19.4355 -0.210253 17.4142 -0.0504103 15.5607 0.551498C15.4073 0.583966 15.2563 0.511537 15.1065 0.491557C13.4241 0.133159 11.5693 0.274271 10.1105 1.29701C8.35916 0.635166 6.47705 0.235558 4.61277 0.440357C3.22645 0.591458 1.83418 1.26829 1.03877 2.50832C0.0329153 4.05555 -0.103814 6.03111 0.0566948 7.84432C0.38009 10.252 0.938899 12.6221 1.64989 14.9336C2.11834 16.3747 2.63435 17.827 3.4678 19.0858C3.89107 19.7039 4.45345 20.327 5.21081 20.4244C5.88376 20.5106 6.49251 20.0723 6.90507 19.5528C7.61844 18.6562 8.35203 17.7758 9.11296 16.9241C9.60994 17.1801 10.1497 17.3275 10.7014 17.3712C10.403 17.7433 10.1569 18.2291 9.68128 18.3752C9.04043 18.635 8.2902 18.6 7.72545 19.0483C7.39968 19.2931 7.38422 19.8263 7.6767 20.1073C8.20579 20.6467 8.98574 20.7629 9.6896 20.8253C10.6951 20.9015 11.6884 20.5567 12.4527 19.8662C12.448 21.5321 12.4551 23.203 12.6335 24.8601C12.7226 25.8304 13.1209 26.7969 13.8236 27.45C14.4858 28.0569 15.4299 28.1831 16.2705 28.0295C17.0956 27.8646 17.9433 27.6049 18.5877 27.013C19.2726 26.3786 19.5651 25.4208 19.7006 24.5017C19.9381 22.8543 20.1418 21.2018 20.3117 19.5453C22.0749 19.8575 24.07 19.5029 25.3874 18.1504C25.6691 17.872 25.9367 17.3899 25.6584 17.0116ZM21.7456 1.34697C22.8038 1.76905 23.7442 2.50208 24.4505 3.42992C24.7869 3.87323 24.8297 4.46889 24.8511 5.01336C24.8666 6.31208 24.6169 7.59457 24.2995 8.84334C23.6828 11.1546 22.7785 13.3703 21.6101 15.4331C21.4966 15.6367 21.3707 15.8323 21.2332 16.0188C21.2188 15.9426 21.2045 15.8665 21.1904 15.7903C21.3342 15.3931 21.5447 15.0185 21.6267 14.5964C21.9168 13.4064 21.6719 12.1813 21.5673 10.9837C21.4579 9.8536 21.8253 8.75343 21.8157 7.62579C21.8574 7.07383 21.6493 6.55185 21.4472 6.05608C20.716 4.33902 19.5532 2.81177 18.061 1.76281C17.6972 1.50056 17.2906 1.31699 16.928 1.0535C18.514 0.696355 20.2154 0.741311 21.7444 1.34572L21.7456 1.34697ZM20.779 10.9862C20.8717 12.3237 21.2415 13.7598 20.6411 15.0285C19.8361 13.3464 18.7958 11.7405 18.4332 9.86733C18.3309 9.27167 18.3048 8.51741 18.8089 8.10282C19.4485 7.62579 20.2844 7.73318 21.0239 7.78064C20.9918 8.85333 20.6779 9.90605 20.7802 10.9862H20.779ZM6.38907 18.9097C6.10015 19.2668 5.71017 19.6927 5.21795 19.5865C4.64249 19.4117 4.27629 18.8597 3.95528 18.364C3.08853 16.9079 2.56658 15.2633 2.08743 13.6311C1.55121 11.6993 1.09941 9.73621 0.839027 7.74068C0.709431 6.22217 0.790279 4.59377 1.52981 3.24135C2.08386 2.21736 3.11706 1.56425 4.20258 1.35071C5.94083 0.999807 7.72307 1.37194 9.39118 1.90641C8.64912 2.75312 8.08879 3.75728 7.74804 4.85102C7.28278 6.31717 7.09458 7.86463 7.19399 9.40654C7.257 10.4892 7.22966 11.5769 7.08579 12.6508C6.90507 14.0532 7.44129 15.4955 8.43288 16.4421C7.75755 17.2713 7.0418 18.0618 6.38788 18.9109L6.38907 18.9097ZM7.91093 13.8859C7.74091 13.0917 7.96324 12.2924 7.98821 11.497C8.04647 10.5966 7.98583 9.695 7.96919 8.79464C8.77054 8.25018 9.70744 7.82434 10.6788 7.88304C10.9294 7.89448 11.1699 7.98952 11.3656 8.15435C11.5612 8.31918 11.7017 8.54522 11.7667 8.79963C12.2078 10.6441 12.3445 12.6971 11.4992 14.4441C11.2086 15.1194 10.9615 15.8144 10.7597 16.5245C9.35432 16.5395 8.15942 15.2908 7.91093 13.8859ZM12.2839 18.8235C11.4017 20.0785 9.6361 20.3183 8.36035 19.6352C8.98931 19.3293 9.72527 19.353 10.3328 18.9759C10.9202 18.6437 11.1532 17.9132 11.7025 17.5373C12.3005 17.4486 12.7369 18.3815 12.2851 18.8223L12.2839 18.8235ZM19.8504 17.3575C19.5151 17.9244 19.6328 18.6162 19.5508 19.2456C19.3582 21.0101 19.1691 22.7771 18.8957 24.5304C18.7661 25.3708 18.426 26.2637 17.6711 26.682C16.897 27.0954 15.9982 27.3551 15.1279 27.214C14.3016 27.0617 13.7808 26.2525 13.5466 25.4645C13.3754 24.8039 13.3575 24.1133 13.3088 23.4327C13.2323 21.7902 13.2176 20.1451 13.2648 18.5013C13.2993 17.8595 12.9854 17.1914 12.4397 16.8792C12.1757 16.7231 11.8666 16.7019 11.5717 16.6769C11.8036 15.4693 12.5039 14.4266 12.744 13.2203C13.0555 11.728 12.8831 10.1745 12.5645 8.70098C12.4087 7.96545 11.8761 7.31485 11.1675 7.13627C10.076 6.84781 8.97504 7.29611 7.99891 7.77564C8.12256 6.10978 8.54702 4.40396 9.51839 3.05154C9.87835 2.55104 10.3294 2.13068 10.8454 1.8149C11.3614 1.49912 11.932 1.29422 12.5241 1.2121C14.4763 0.951104 16.5261 1.51555 18.0777 2.79804C19.3734 3.86714 20.3575 5.29663 20.9181 6.92398C20.0109 6.89026 18.9825 6.85155 18.2489 7.5134C17.5831 8.10282 17.4975 9.10808 17.6473 9.95225C17.9944 11.9603 19.1228 13.6673 19.955 15.4731C20.1762 15.8964 20.4734 16.266 20.7564 16.6457C20.4199 16.8242 20.0442 16.9953 19.8528 17.3587L19.8504 17.3575ZM22.1855 18.7773C21.5863 18.8522 20.9633 18.8747 20.3854 18.6662C20.3878 18.3228 20.37 17.9157 20.6327 17.6597C20.8408 17.4986 21.1369 17.35 21.377 17.5261C22.3995 18.0917 23.5885 17.8158 24.6764 17.6772C24.0117 18.3565 23.0915 18.6737 22.1855 18.7773ZM19.0443 8.35382C18.8315 8.53739 19.0609 8.81212 19.244 8.89829C19.6875 9.17177 20.2951 8.78964 20.3093 8.25767C19.9087 8.06161 19.4069 8.08159 19.0443 8.35382ZM11.1948 9.20299C11.3839 9.0906 11.5836 8.78215 11.3648 8.59608C11.0533 8.3301 10.6003 8.2789 10.2211 8.38629C10.0986 8.43125 9.9702 8.51866 9.99516 8.67601C10.0831 9.21048 10.7644 9.53516 11.1936 9.20299H11.1948Z" fill="#444444"/>
</svg>
