<svg width="30" height="28" viewBox="0 0 30 28" fill="none" xmlns="http://www.w3.org/2000/svg">
<path d="M23.8608 9.28924C23.5527 9.18344 23.2446 9.08352 22.9365 8.98948C22.9878 8.77201 23.0335 8.55453 23.0791 8.33705C23.7809 4.83394 23.3188 2.01853 21.7611 1.08985C20.2606 0.202315 17.8129 1.12511 15.3366 3.34689C15.0913 3.56436 14.8517 3.79359 14.6234 4.02282C14.4694 3.87 14.3096 3.71718 14.1499 3.57024C11.5538 1.19565 8.95207 0.196438 7.39445 1.13099C5.89958 2.0244 5.45455 4.67525 6.08216 7.99027C6.14492 8.31942 6.21339 8.6427 6.29327 8.97185C5.92811 9.07765 5.56866 9.1952 5.23203 9.31863C2.18524 10.406 0 12.1223 0 13.8974C0 15.7312 2.32788 17.5709 5.49448 18.6877C5.75124 18.7759 6.00799 18.864 6.27045 18.9404C6.18486 19.2931 6.11069 19.6399 6.04222 19.9984C5.44313 23.2605 5.91099 25.8467 7.40586 26.7343C8.94637 27.6512 11.5367 26.7108 14.0586 24.4361C14.2583 24.2539 14.458 24.0658 14.6577 23.8659C14.9087 24.1187 15.1712 24.3597 15.4336 24.5948C17.8756 26.7578 20.2891 27.6336 21.7782 26.746C23.3188 25.8291 23.8208 23.0489 23.1704 19.6634C23.1191 19.4048 23.062 19.1403 22.9992 18.8699C23.1818 18.817 23.3587 18.7582 23.5356 18.6994C26.8277 17.5768 29.2126 15.7606 29.2126 13.8974C29.2126 12.1164 26.9646 10.3884 23.8608 9.28924ZM16.1411 4.29907C18.2636 2.3947 20.2434 1.64823 21.1449 2.1831C22.1092 2.75324 22.48 5.0573 21.8752 8.08431C21.8353 8.28416 21.7954 8.47812 21.744 8.67208C20.4774 8.3782 19.1936 8.1666 17.9041 8.04905C17.1624 6.9558 16.3522 5.90956 15.4736 4.92799C15.6961 4.71051 15.9129 4.50479 16.1411 4.29907ZM9.53975 16.9479C9.83073 17.4592 10.1274 17.9706 10.4412 18.4702C9.55116 18.3703 8.66679 18.2234 7.79384 18.0294C8.04488 17.183 8.35869 16.3072 8.72385 15.4138C8.98631 15.931 9.25447 16.4424 9.53975 16.9479ZM7.81095 9.87701C8.63256 9.68893 9.50552 9.53611 10.4127 9.41855C10.1103 9.9064 9.81362 10.406 9.53404 10.9115C9.25447 11.4111 8.9806 11.9225 8.72385 12.4397C8.3644 11.5639 8.062 10.7058 7.81095 9.87701ZM9.37429 13.9268C9.75086 13.1156 10.1617 12.3221 10.5953 11.5404C11.0289 10.7587 11.4968 10.0004 11.9874 9.25398C12.8433 9.18932 13.7162 9.15405 14.6063 9.15405C15.4964 9.15405 16.375 9.18932 17.2252 9.25398C17.7102 9.99457 18.1723 10.7528 18.6116 11.5286C19.051 12.3045 19.4618 13.098 19.8498 13.9032C19.4675 14.7144 19.0567 15.5137 18.6173 16.3013C18.1837 17.0831 17.7216 17.8413 17.2366 18.5936C16.3865 18.6583 15.5021 18.6877 14.6063 18.6877C13.7105 18.6877 12.8433 18.6583 12.0046 18.6054C11.5082 17.8589 11.0403 17.0948 10.601 16.3131C10.1617 15.5314 9.75656 14.7379 9.37429 13.9268ZM19.6786 16.9361C19.9696 16.4189 20.2434 15.8958 20.5116 15.3668C20.8768 16.2191 21.1963 17.0831 21.4758 17.9706C20.5915 18.1763 19.6957 18.335 18.7942 18.4408C19.1023 17.9471 19.3933 17.4416 19.6786 16.9361ZM20.5002 12.4397C20.232 11.9225 19.9582 11.4052 19.6729 10.8997C19.3933 10.4001 19.1023 9.9064 18.7999 9.41855C19.7185 9.53611 20.5972 9.6948 21.4188 9.88877C21.1563 10.7587 20.8482 11.6051 20.5002 12.4397ZM14.6177 5.82728C15.2168 6.49733 15.7817 7.20266 16.3066 7.93149C15.1769 7.87859 14.0415 7.87859 12.9118 7.93149C13.4709 7.17327 14.0472 6.46795 14.6177 5.82728ZM7.99924 2.22424C8.95778 1.64823 11.086 2.47111 13.3283 4.51655C13.4709 4.64586 13.6135 4.78692 13.7619 4.92799C12.8775 5.90956 12.0616 6.9558 11.3142 8.04905C10.0247 8.1666 8.74667 8.37232 7.48003 8.66033C7.40586 8.36057 7.3431 8.05493 7.28033 7.74928C6.74401 4.90448 7.09776 2.75912 7.99924 2.22424ZM6.60137 17.7179C6.36173 17.6473 6.12781 17.5709 5.89388 17.4886C4.67859 17.0948 3.29783 16.4718 2.29935 15.6548C1.72309 15.2434 1.33511 14.6086 1.2267 13.8974C1.2267 12.8217 3.02967 11.4464 5.63142 10.5118C5.95664 10.3943 6.28756 10.2885 6.61849 10.1885C7.00647 11.464 7.47433 12.7159 8.01636 13.9268C7.46862 15.1552 6.99506 16.4248 6.60137 17.7179ZM13.2541 23.478C12.3127 24.3655 11.2229 25.0709 10.0361 25.5528C9.40281 25.8644 8.6725 25.8938 8.02206 25.6293C7.11487 25.0885 6.7383 23.0137 7.25181 20.2218C7.31457 19.8926 7.38304 19.5635 7.46291 19.2402C8.74097 19.5223 10.0304 19.7163 11.337 19.8162C12.0901 20.9153 12.9175 21.9674 13.8018 22.9549C13.6192 23.1371 13.4367 23.3134 13.2541 23.478ZM14.652 22.0497C14.07 21.4032 13.488 20.6861 12.9232 19.9161C13.4709 19.9396 14.0358 19.9514 14.6063 19.9514C15.194 19.9514 15.7703 19.9396 16.3408 19.9102C15.8159 20.6567 15.251 21.3679 14.652 22.0497ZM22.1092 23.813C22.0578 24.5301 21.7155 25.2002 21.1677 25.6528C20.2606 26.1935 18.3264 25.4882 16.2381 23.6426C15.9985 23.431 15.7588 23.2018 15.5135 22.9667C16.3865 21.9733 17.1909 20.9212 17.9213 19.8162C19.2278 19.7045 20.5287 19.4988 21.8125 19.199C21.8695 19.44 21.9209 19.681 21.9665 19.9161C22.2461 21.1857 22.2917 22.5082 22.1092 23.813ZM23.1476 17.4945C22.9878 17.5474 22.8281 17.6003 22.6626 17.6473C22.2632 16.366 21.7725 15.114 21.2077 13.8974C21.7554 12.6983 22.2176 11.464 22.6056 10.2003C22.9022 10.2885 23.1875 10.3825 23.4614 10.4765C26.1202 11.417 27.9859 12.8159 27.9859 13.8856C27.9859 15.0376 25.9947 16.5247 23.1476 17.4945ZM14.6063 16.6129C16.0498 16.6129 17.2195 15.4079 17.2195 13.9209C17.2195 12.4338 16.0498 11.2289 14.6063 11.2289C13.1628 11.2289 11.9932 12.4338 11.9932 13.9209C11.9932 15.4079 13.1628 16.6129 14.6063 16.6129Z" fill="#444444"/>
</svg>
