<svg width="28" height="29" viewBox="0 0 28 29" fill="none" xmlns="http://www.w3.org/2000/svg">
<path d="M19.4815 19.9015C18.2176 19.9015 17.1897 18.8514 17.1897 17.5601C17.1897 16.2689 18.2176 15.2188 19.4815 15.2188C20.7454 15.2188 21.7733 16.2689 21.7733 17.5601C21.7733 18.8514 20.7454 19.9015 19.4815 19.9015ZM19.4815 16.3894C19.1864 16.4029 18.9079 16.5322 18.7037 16.7502C18.4996 16.9683 18.3857 17.2584 18.3857 17.5601C18.3857 17.8619 18.4996 18.152 18.7037 18.37C18.9079 18.5881 19.1864 18.7173 19.4815 18.7308C19.7765 18.7173 20.0551 18.5881 20.2592 18.37C20.4633 18.152 20.5773 17.8619 20.5773 17.5601C20.5773 17.2584 20.4633 16.9683 20.2592 16.7502C20.0551 16.5322 19.7765 16.4029 19.4815 16.3894Z" fill="#444444"/>
<path d="M6.09305 28.0766C4.33525 28.0766 2.78486 27.5323 1.66875 26.3932C-1.12723 23.5379 -0.344582 17.928 3.52969 13.0532C3.62557 12.9326 3.76443 12.8558 3.91572 12.8398C4.067 12.8238 4.21833 12.8698 4.3364 12.9678C4.45447 13.0657 4.52961 13.2076 4.5453 13.3621C4.56098 13.5167 4.51593 13.6713 4.42005 13.7919C0.980072 18.1188 0.145861 23.1808 2.48005 25.5655C5.15915 28.3026 10.9769 26.817 15.4447 22.2548C16.475 21.2089 17.3776 20.0395 18.133 18.772C18.2117 18.6391 18.3388 18.5436 18.4865 18.5065C18.5596 18.4882 18.6355 18.4847 18.7099 18.4963C18.7843 18.5079 18.8558 18.5344 18.9202 18.5742C18.9846 18.614 19.0407 18.6664 19.0853 18.7283C19.1299 18.7903 19.1621 18.8606 19.1801 18.9353C19.198 19.01 19.2015 19.0876 19.1901 19.1636C19.1787 19.2396 19.1528 19.3126 19.1139 19.3784C18.3105 20.7264 17.3506 21.9701 16.2548 23.0825C13.0933 26.3112 9.25916 28.0766 6.09305 28.0766Z" fill="#444444"/>
<path d="M7.39617 21.4551C7.09509 21.456 6.79683 21.3958 6.51869 21.2781C6.24055 21.1603 5.98807 20.9873 5.77587 20.7691C5.56233 20.5523 5.39302 20.2943 5.27776 20.0102C5.16249 19.726 5.10356 19.4213 5.10438 19.1137C5.10438 18.4874 5.34272 17.8997 5.77587 17.4584C6.63873 16.5745 8.14902 16.5722 9.01646 17.4584C9.44961 17.8997 9.68795 18.4874 9.68795 19.1137C9.68795 19.7389 9.44961 20.3266 9.01646 20.7691C8.58331 21.2116 8.00807 21.4551 7.39617 21.4551ZM7.39617 17.9431C7.09021 17.9431 6.80259 18.0648 6.58602 18.2861C6.36945 18.5073 6.25027 18.8 6.25027 19.1137C6.25027 19.4263 6.36945 19.7202 6.58602 19.9414C6.80443 20.154 7.09452 20.2726 7.39617 20.2726C7.69782 20.2726 7.98791 20.154 8.20631 19.9414C8.31308 19.833 8.39774 19.704 8.45537 19.562C8.513 19.4199 8.54247 19.2675 8.54206 19.1137C8.54176 18.8034 8.42093 18.5058 8.2061 18.2863C7.99127 18.0668 7.69998 17.9434 7.39617 17.9431Z" fill="#444444"/>
<path d="M6.9533 18.0075C6.82514 18.0075 6.70068 17.9636 6.5999 17.8827C6.49911 17.8018 6.42785 17.6887 6.39754 17.5615C6.03342 16.0281 5.85144 14.4554 5.85554 12.8775C5.85554 5.77733 9.45364 0 13.8768 0C17.8324 0 21.1601 4.53172 21.7926 10.7762C21.8084 10.9306 21.7635 11.0852 21.6678 11.2058C21.5721 11.3265 21.4333 11.4033 21.2821 11.4195C21.1309 11.4356 20.9797 11.3897 20.8616 11.2919C20.7435 11.1941 20.6683 11.0524 20.6525 10.8979C20.0921 5.35121 17.1793 1.17069 13.8768 1.17069C10.085 1.17069 7.00143 6.42238 7.00143 12.8775C7.00143 14.4006 7.17217 15.8815 7.51021 17.2828C7.53112 17.3691 7.5325 17.459 7.51426 17.5459C7.49602 17.6327 7.45863 17.7142 7.40493 17.7841C7.35123 17.8539 7.28265 17.9104 7.20439 17.9491C7.12613 17.9878 7.04025 18.0078 6.9533 18.0075Z" fill="#444444"/>
<path d="M12.0183 13.0684C11.6463 13.0682 11.2799 12.9756 10.9508 12.7987C10.6216 12.6217 10.3394 12.3657 10.1286 12.0526C9.91771 11.7395 9.78451 11.3788 9.74042 11.0014C9.69633 10.6241 9.74267 10.2415 9.87546 9.88647C9.98238 9.59884 10.1444 9.33587 10.3519 9.11295C10.5595 8.89003 10.8085 8.71163 11.0844 8.58818C11.3593 8.46254 11.6557 8.39365 11.9568 8.38547C12.2578 8.37729 12.5574 8.42998 12.8385 8.54051C13.1195 8.65105 13.3764 8.81725 13.5943 9.02955C13.8122 9.24185 13.987 9.49608 14.1084 9.7776C14.2312 10.0584 14.2984 10.3612 14.306 10.6686C14.3137 10.976 14.2617 11.282 14.1531 11.5688C14.0458 11.8562 13.8836 12.1189 13.6761 12.3418C13.4686 12.5647 13.2198 12.7432 12.9442 12.867C12.6529 13 12.3373 13.0686 12.0183 13.0684ZM12.0148 9.55634C11.8545 9.55649 11.696 9.59119 11.5496 9.65819C11.4118 9.72013 11.2874 9.80948 11.1837 9.92103C11.08 10.0326 10.9991 10.1641 10.9457 10.3079C10.8357 10.5994 10.8437 10.9178 10.9686 11.2035C11.0935 11.4891 11.3181 11.7092 11.6035 11.8204C11.8899 11.934 12.2016 11.9258 12.4812 11.797C12.619 11.7351 12.7434 11.6457 12.8471 11.5342C12.9508 11.4226 13.0317 11.2911 13.0851 11.1473C13.1399 11.0039 13.1663 10.8509 13.1628 10.6971C13.1593 10.5432 13.1261 10.3916 13.0649 10.2509C13.0037 10.1103 12.9159 9.98344 12.8065 9.87768C12.6971 9.77192 12.5682 9.68936 12.4274 9.63478C12.2956 9.58352 12.1558 9.55695 12.0148 9.55634Z" fill="#444444"/>
<path d="M19.0405 28.1011C17.599 28.1011 16.052 27.8892 14.4592 27.449C14.3849 27.4306 14.315 27.3971 14.2535 27.3506C14.1921 27.3041 14.1404 27.2455 14.1015 27.1782C14.0625 27.111 14.0372 27.0364 14.0269 26.959C14.0166 26.8816 14.0216 26.8029 14.0415 26.7274C14.0615 26.652 14.0961 26.5814 14.1431 26.5199C14.1902 26.4583 14.2489 26.407 14.3157 26.369C14.3825 26.3309 14.4561 26.3069 14.5321 26.2984C14.6081 26.2899 14.685 26.297 14.7583 26.3193C20.0237 27.7768 24.8903 26.4996 26.0763 23.3516C27.4376 19.7377 23.7478 14.911 17.8511 12.593C16.4975 12.0546 15.085 11.6859 13.6445 11.4949C13.5698 11.4852 13.4977 11.4606 13.4323 11.4224C13.3669 11.3843 13.3095 11.3333 13.2633 11.2725C13.2172 11.2117 13.1833 11.1422 13.1634 11.068C13.1436 10.9937 13.1383 10.9162 13.1478 10.8399C13.1572 10.7636 13.1813 10.6899 13.2187 10.6231C13.256 10.5563 13.3059 10.4976 13.3654 10.4505C13.425 10.4034 13.493 10.3687 13.5657 10.3484C13.6383 10.3282 13.7142 10.3227 13.7889 10.3324C15.282 10.5256 16.7877 10.9178 18.2624 11.4984C24.7494 14.0493 28.7336 19.5551 27.1454 23.7707C26.1084 26.5324 22.9721 28.0999 19.0405 28.1011Z" fill="#444444"/>
</svg>
