<svg width="35" height="22" viewBox="0 0 35 22" fill="none" xmlns="http://www.w3.org/2000/svg">
<path d="M28.3534 6.69387C27.0647 6.24042 25.9272 5.4251 25.0713 4.34141C24.128 3.13398 22.9269 2.16299 21.5598 1.50269C20.1927 0.842401 18.6959 0.51031 17.1839 0.531823C15.15 0.384664 13.1364 1.02557 11.5442 2.3269C9.95193 3.62824 8.89789 5.49452 8.59195 7.55409C9.19454 6.524 10.1015 5.71578 11.1822 5.24573C12.263 4.77568 13.4619 4.66804 14.6063 4.9383C15.8929 5.40494 17.0285 6.22501 17.8884 7.30831C18.8369 8.50609 20.0403 9.46706 21.4071 10.1181C22.7739 10.7691 24.2681 11.093 25.7758 11.0652C27.8098 11.2124 29.8234 10.5715 31.4156 9.27015C33.0078 7.96881 34.0619 6.10253 34.3678 4.04296C33.7761 5.08537 32.8721 5.9058 31.7891 6.38313C30.7062 6.86047 29.5016 6.96941 28.3534 6.69387ZM6.01436 15.4366C7.30306 15.89 8.44059 16.7054 9.29649 17.7891C10.2398 18.9965 11.4409 19.9675 12.808 20.6278C14.1751 21.2881 15.6719 21.6201 17.1839 21.5986C19.2178 21.7458 21.2314 21.1049 22.8236 19.8036C24.4159 18.5022 25.4699 16.6359 25.7758 14.5764C25.1733 15.6065 24.2663 16.4147 23.1856 16.8847C22.1048 17.3548 20.9059 17.4624 19.7615 17.1922C18.4749 16.7255 17.3393 15.9055 16.4794 14.8221C15.5283 13.6273 14.3244 12.6685 12.9582 12.0177C11.592 11.367 10.0992 11.0413 8.59195 11.0652C6.558 10.9181 4.54443 11.559 2.9522 12.8603C1.35998 14.1616 0.305946 16.0279 0 18.0875C0.591653 17.0451 1.4957 16.2247 2.57867 15.7473C3.66165 15.27 4.86615 15.1611 6.01436 15.4366Z" fill="#444444"/>
</svg>
